<?xml version="1.0" standalone="no"?>
<!DOCTYPE svg PUBLIC "-//W3C//DTD SVG 20010904//EN"
 "http://www.w3.org/TR/2001/REC-SVG-20010904/DTD/svg10.dtd">
<svg version="1.0" xmlns="http://www.w3.org/2000/svg"
 width="1000.000000pt" height="1000.000000pt" viewBox="0 0 1000.000000 1000.000000"
 preserveAspectRatio="xMidYMid meet">
<metadata>
Created by potrace 1.14, written by Peter Selinger 2001-2017
</metadata>
<g transform="translate(0.000000,1000.000000) scale(0.100000,-0.100000)"
fill="#000000" stroke="none">
<path d="M5826 8443 c-3 -4 -15 -8 -26 -10 -42 -6 -111 -47 -144 -85 -68 -77
-74 -110 -74 -413 -4 -1640 0 -3337 6 -3365 19 -76 63 -132 138 -176 27 -15
51 -32 52 -36 2 -4 8 -8 12 -8 9 0 409 -229 482 -276 21 -13 40 -24 42 -24 3
0 62 -34 131 -75 70 -41 131 -75 135 -75 5 0 15 -6 23 -14 7 -8 42 -29 78 -47
105 -53 218 -47 311 18 21 14 35 29 32 34 -3 5 -1 9 4 9 14 0 61 75 66 107 2
15 5 28 6 28 7 0 5 3192 -2 3202 -5 6 -5 14 2 18 7 4 7 12 0 24 -5 10 -7 21
-4 23 11 12 -52 276 -76 320 -6 10 -10 25 -10 33 0 8 -5 15 -12 15 -6 0 -9 3
-5 6 6 6 -43 104 -87 174 -80 124 -188 242 -306 331 -25 19 -46 37 -48 42 -2
4 -8 7 -14 7 -6 0 -29 13 -53 29 -73 49 -294 141 -350 146 -5 1 -26 5 -45 10
-51 12 -67 14 -153 19 -43 2 -81 6 -84 10 -8 8 -18 8 -27 -1z"/>
<path d="M4640 6887 c-25 -7 -79 -33 -120 -57 -41 -23 -86 -49 -100 -57 -14
-8 -38 -22 -55 -32 -16 -10 -48 -28 -70 -41 -88 -50 -130 -74 -135 -80 -3 -3
-23 -14 -45 -26 -85 -44 -280 -159 -287 -168 -4 -6 -8 -7 -8 -2 0 4 -15 -3
-34 -18 -19 -14 -41 -26 -49 -26 -9 0 -17 -4 -19 -8 -4 -10 -121 -78 -127 -73
-2 1 -7 -1 -10 -6 -5 -8 -154 -97 -266 -158 -22 -12 -145 -84 -274 -159 -129
-75 -237 -136 -241 -136 -4 0 -13 -7 -20 -15 -7 -8 -16 -12 -21 -9 -5 3 -9 0
-9 -5 0 -6 -4 -11 -9 -11 -5 0 -48 -24 -97 -53 -49 -29 -114 -66 -144 -83 -30
-16 -57 -31 -60 -34 -3 -3 -26 -17 -52 -30 -27 -14 -48 -28 -48 -32 0 -5 -5
-8 -10 -8 -6 0 -51 -24 -100 -52 -50 -29 -103 -60 -117 -68 -15 -8 -67 -39
-115 -67 -48 -29 -88 -49 -88 -45 0 4 -4 2 -8 -3 -4 -6 -41 -32 -82 -60 -41
-27 -81 -57 -88 -67 -7 -10 -17 -18 -23 -18 -5 0 -39 -32 -76 -71 -97 -103
-95 -100 -128 -149 -16 -25 -33 -47 -37 -50 -11 -9 -92 -170 -116 -230 -64
-164 -86 -287 -85 -470 1 -182 24 -306 83 -454 78 -197 137 -262 260 -284 75
-14 152 4 232 55 21 12 39 23 42 23 2 0 45 25 95 55 51 30 96 55 101 55 6 0
10 4 10 8 0 5 16 14 35 22 19 8 35 17 35 22 0 4 5 8 11 8 6 0 48 23 94 50 46
28 88 50 94 50 6 0 11 3 11 8 0 4 15 13 33 21 17 8 34 17 37 21 3 3 30 20 60
36 30 17 95 54 144 82 49 29 93 52 97 52 5 0 9 4 9 9 0 5 12 14 28 20 26 10
102 51 112 61 9 9 84 51 113 63 15 6 27 15 27 19 0 4 7 8 15 8 8 0 15 5 15 12
0 6 3 9 6 5 3 -3 36 13 72 37 37 23 82 48 100 55 17 7 32 18 32 23 0 5 4 7 9
4 5 -3 14 0 20 8 6 7 29 21 51 31 22 10 40 22 40 27 0 4 4 8 8 8 8 0 200 107
295 164 18 10 50 29 72 40 22 12 51 29 65 38 68 43 220 128 224 126 2 -2 12 4
22 12 11 9 36 25 57 35 20 11 37 22 37 25 0 3 15 12 33 19 17 8 60 32 95 53
34 21 67 38 72 38 6 0 10 4 10 9 0 5 10 13 22 17 12 3 50 24 85 45 35 22 66
39 68 39 3 0 24 12 48 27 23 15 89 53 147 86 58 33 120 71 138 85 36 28 78 92
92 144 9 31 16 1210 8 1250 -2 10 -7 21 -11 24 -4 4 -7 14 -7 22 0 27 -88 119
-135 141 -58 27 -137 34 -195 18z"/>
<path d="M4509 4349 c-7 -4 -16 -6 -21 -3 -9 6 -113 -43 -193 -91 -33 -20 -68
-39 -77 -42 -10 -3 -18 -10 -18 -15 0 -5 -4 -6 -10 -3 -5 3 -10 2 -10 -3 0 -5
-8 -12 -17 -15 -10 -4 -36 -17 -58 -30 -110 -66 -454 -263 -482 -276 -18 -8
-33 -19 -33 -23 0 -4 -4 -8 -9 -8 -17 0 -174 -95 -200 -121 -61 -61 -83 -113
-86 -199 -3 -106 46 -187 155 -256 66 -41 101 -61 133 -74 15 -7 27 -17 27
-23 0 -6 3 -8 6 -4 3 3 30 -10 59 -29 30 -19 58 -34 63 -34 5 0 19 -9 32 -20
13 -11 29 -20 37 -20 7 0 13 -4 13 -10 0 -5 6 -10 14 -10 8 0 21 -6 28 -12 8
-7 23 -18 33 -24 11 -5 125 -71 253 -145 128 -74 254 -146 280 -161 26 -14 58
-33 72 -41 14 -8 41 -23 60 -33 19 -10 37 -22 40 -25 6 -7 47 -29 107 -59 23
-11 43 -24 45 -28 2 -4 19 -15 38 -25 19 -10 44 -23 55 -30 23 -14 163 -94
204 -117 14 -8 57 -33 95 -55 37 -22 90 -52 117 -67 28 -15 63 -36 78 -48 16
-11 32 -20 35 -20 4 0 23 -11 44 -23 20 -13 57 -35 82 -49 67 -37 109 -62 168
-97 29 -17 57 -31 62 -31 6 0 10 -4 10 -10 0 -5 6 -10 14 -10 7 0 19 -7 26
-15 7 -8 16 -12 21 -9 5 3 9 0 9 -5 0 -6 5 -11 10 -11 6 0 40 -18 76 -40 36
-22 68 -40 71 -40 3 0 17 -9 33 -20 30 -21 236 -128 285 -147 25 -10 137 -45
155 -48 3 0 23 -5 45 -9 69 -15 198 -29 230 -26 19 1 27 1 58 -1 6 0 41 2 77
6 36 3 75 7 88 8 12 0 22 5 22 10 0 4 4 5 10 2 12 -7 114 18 205 52 65 24 224
100 235 113 3 3 22 14 43 25 20 11 37 22 37 26 0 3 20 20 45 38 81 58 212 200
265 287 13 21 29 42 34 46 6 4 7 8 2 8 -5 0 -3 7 4 14 6 8 14 30 16 48 3 18 7
43 9 55 8 52 -26 147 -72 199 -26 28 -209 144 -275 175 -16 7 -28 17 -28 22 0
6 -3 8 -6 4 -4 -3 -26 7 -50 23 -23 17 -45 30 -48 30 -2 0 -44 23 -93 51 -48
29 -113 65 -143 82 -30 17 -56 34 -58 39 -2 4 -8 8 -12 8 -5 0 -59 29 -120 65
-61 36 -114 65 -117 65 -4 0 -14 6 -22 14 -9 7 -41 26 -71 42 -30 16 -57 31
-60 34 -3 3 -43 28 -90 54 -47 27 -105 60 -130 74 -25 14 -76 44 -115 67 -38
22 -77 44 -85 48 -8 4 -28 16 -45 27 -16 11 -39 24 -50 30 -11 5 -42 23 -70
40 -27 16 -66 38 -85 47 -19 10 -37 21 -40 24 -3 3 -25 17 -50 31 -25 14 -90
51 -145 83 -55 31 -120 69 -145 83 -25 14 -69 40 -98 59 -29 18 -59 33 -66 33
-8 0 -16 7 -20 15 -3 8 -9 14 -13 13 -4 -1 -37 15 -73 36 -36 21 -80 47 -97
57 -18 11 -48 27 -65 38 -18 10 -60 34 -93 53 -263 152 -329 190 -362 211 -51
32 -154 80 -159 74 -3 -3 -20 -1 -38 3 -19 4 -40 4 -47 -1z"/>
</g>
</svg>
